<svg xmlns="http://www.w3.org/2000/svg" viewBox="0 0 1600 1660" role="img" aria-label="Kampung Kaki architecture">
<defs>
<marker id="ar-cy" markerWidth="10" markerHeight="10" refX="8.5" refY="5" orient="auto-start-reverse" markerUnits="strokeWidth"><path d="M0 0 L10 5 L0 10 z" fill="#0284C7"/></marker>
<marker id="ar-mg" markerWidth="10" markerHeight="10" refX="8.5" refY="5" orient="auto-start-reverse" markerUnits="strokeWidth"><path d="M0 0 L10 5 L0 10 z" fill="#C026D3"/></marker>
<marker id="ar-am" markerWidth="10" markerHeight="10" refX="8.5" refY="5" orient="auto-start-reverse" markerUnits="strokeWidth"><path d="M0 0 L10 5 L0 10 z" fill="#D97706"/></marker>
<marker id="ar-gy" markerWidth="10" markerHeight="10" refX="8.5" refY="5" orient="auto-start-reverse" markerUnits="strokeWidth"><path d="M0 0 L10 5 L0 10 z" fill="#64748B"/></marker>
<marker id="ar-pu" markerWidth="10" markerHeight="10" refX="8.5" refY="5" orient="auto-start-reverse" markerUnits="strokeWidth"><path d="M0 0 L10 5 L0 10 z" fill="#7C3AED"/></marker>
<symbol id="logo-react" viewBox="0 0 24 24"><circle cx="12" cy="12" r="2.05" fill="#149ECA"/><g stroke="#149ECA" stroke-width="1" fill="none"><ellipse cx="12" cy="12" rx="11" ry="4.2"/><ellipse cx="12" cy="12" rx="11" ry="4.2" transform="rotate(60 12 12)"/><ellipse cx="12" cy="12" rx="11" ry="4.2" transform="rotate(120 12 12)"/></g></symbol>
<symbol id="logo-react-w" viewBox="0 0 24 24"><circle cx="12" cy="12" r="2.05" fill="#fff"/><g stroke="#fff" stroke-width="1" fill="none"><ellipse cx="12" cy="12" rx="11" ry="4.2"/><ellipse cx="12" cy="12" rx="11" ry="4.2" transform="rotate(60 12 12)"/><ellipse cx="12" cy="12" rx="11" ry="4.2" transform="rotate(120 12 12)"/></g></symbol>
<symbol id="logo-vercel" viewBox="0 0 24 24"><path d="M12 1.608 24 22.392H0Z" fill="#0f172a"/></symbol>
<symbol id="logo-mosq" viewBox="0 0 24 24"><path fill="#3C5280" d="M1.353 11.424c0 2.637.964 5.105 2.636 7.013l-1.007.903A11.968 11.968 0 0 1 0 11.424C0 8.065 1.38 5.029 3.604 2.85l.05.045L6.637 5.57a7.942 7.942 0 0 0-1.433 9.963l1.03-.923a6.59 6.59 0 0 1 1.416-8.132l1.02.915.909.814.941.844a2.778 2.778 0 0 0-1.311 2.367c0 1.23.795 2.273 1.899 2.646l.095 1.297a4.024 4.024 0 0 1-2.483-6.27l-.9-.809-.004-.003a5.233 5.233 0 0 0 .205 6.546l-3.023 2.71a9.291 9.291 0 0 1-.21-11.97L3.777 4.66a10.599 10.599 0 0 0-2.407 6.14l-.006.008.005.004c-.011.203-.017.406-.017.612zm11.54 2.639a2.793 2.793 0 0 0 .588-5.013l.941-.844.908-.814 1.021-.915a6.59 6.59 0 0 1 1.417 8.132l1.029.923a7.942 7.942 0 0 0-1.433-9.963l2.981-2.673.05-.045A11.964 11.964 0 0 1 24 11.424c0 2.98-1.095 5.769-2.982 7.916l-1.007-.903a10.61 10.61 0 0 0 2.619-7.625l.005-.004-.006-.007a10.598 10.598 0 0 0-2.407-6.141l-1.008.904a9.291 9.291 0 0 1-.211 11.97l-3.023-2.71a5.233 5.233 0 0 0 .205-6.546l-.004.003-.9.808a4.024 4.024 0 0 1-2.482 6.27zM12 21.149l.335-4.571.271-3.712a1.56 1.56 0 1 0-1.212 0l.271 3.712Z"/></symbol>
<symbol id="logo-redis" viewBox="0 0 24 24"><path fill="#DC382D" d="M21.94 16.99c-1.16.6-7.18 3.08-8.46 3.75-1.29.67-2.01.66-3.02.18-1.02-.49-7.43-3.08-8.58-3.63-.58-.27-.88-.5-.88-.72v-2.27s8.34-1.81 9.69-2.3c1.35-.48 1.82-.5 2.97-.08 1.15.42 8.05 1.45 9.18 1.86l-.01 2.49c0 .25-.54.53-.58 1.07zm.59-5.54c-1.16.6-7.18 3.08-8.46 3.75-1.29.67-2.01.66-3.02.18C9.95 14.82 4.03 12.45 2.88 11.9 1.73 11.34 1.7 10.97 1.7 10.5V8.23s8.34-1.81 9.69-2.3c1.35-.48 1.82-.5 2.97-.08 1.15.42 8.05 2.51 9.18 2.92l-.01 2.49c0 .25-.54.53-.58 1.07zm0-4.07c-1.16.6-7.18 3.08-8.46 3.75-1.29.67-2.01.66-3.02.18C9.95 10.75 4.03 8.38 2.88 7.83c-.58-.27-.88-.5-.88-.72V4.84S10.34 3.03 11.69 2.54c1.35-.48 1.82-.5 2.97-.08 1.15.42 8.05 2.51 9.18 2.92l-.01 2.49c0 .25-.54.53-.58 1.07z"/></symbol>
<symbol id="logo-fastapi" viewBox="0 0 24 24"><path fill="#009688" d="M12 .039C5.373.038.0003 5.3931 0 11.9988c-.001 6.6066 5.372 11.9628 12 11.9625 6.628.0003 12.001-5.3559 12-11.9625-.0003-6.6057-5.3729-11.9604-12-11.96m-.829 5.4153h7.55l-7.5805 5.3284h5.1828L5.279 18.5436q2.9466-6.5444 5.892-13.0896"/></symbol>
<symbol id="logo-openai" viewBox="0 0 24 24"><path fill="#0f172a" d="M22.282 9.821a5.985 5.985 0 0 0-.516-4.91 6.046 6.046 0 0 0-6.51-2.9A6.065 6.065 0 0 0 4.981 4.18a5.985 5.985 0 0 0-3.998 2.9 6.046 6.046 0 0 0 .743 7.097 5.98 5.98 0 0 0 .51 4.911 6.051 6.051 0 0 0 6.515 2.9A5.985 5.985 0 0 0 13.26 24a6.056 6.056 0 0 0 5.772-4.206 5.99 5.99 0 0 0 3.997-2.9 6.056 6.056 0 0 0-.747-7.073zM13.26 22.43a4.476 4.476 0 0 1-2.876-1.04l.141-.081 4.779-2.758a.795.795 0 0 0 .392-.681v-6.737l2.02 1.168a.071.071 0 0 1 .038.052v5.583a4.504 4.504 0 0 1-4.494 4.494zM3.6 18.304a4.47 4.47 0 0 1-.535-3.014l.142.085 4.783 2.759a.771.771 0 0 0 .78 0l5.843-3.369v2.332a.08.08 0 0 1-.033.062L9.74 19.95a4.5 4.5 0 0 1-6.14-1.646zM2.34 7.896a4.485 4.485 0 0 1 2.366-1.973V11.6a.766.766 0 0 0 .388.676l5.815 3.355-2.02 1.168a.076.076 0 0 1-.071 0l-4.83-2.786A4.504 4.504 0 0 1 2.34 7.872zm16.597 3.855-5.833-3.387L15.119 7.2a.076.076 0 0 1 .071 0l4.83 2.791a4.494 4.494 0 0 1-.676 8.105V12.43a.79.79 0 0 0-.407-.667zm2.01-3.023-.141-.085-4.774-2.782a.776.776 0 0 0-.785 0L9.409 9.23V6.897a.066.066 0 0 1 .028-.061l4.83-2.787a4.5 4.5 0 0 1 6.68 4.66zm-12.64 4.135-2.02-1.164a.08.08 0 0 1-.038-.057V6.075a4.5 4.5 0 0 1 7.375-3.453l-.142.08-4.778 2.758a.795.795 0 0 0-.393.681zm1.097-2.365 2.602-1.5 2.607 1.5v2.999l-2.597 1.5-2.607-1.5z"/></symbol>
<symbol id="logo-tg" viewBox="0 0 24 24"><path fill="#26A5E4" d="M11.944 0A12 12 0 0 0 0 12a12 12 0 0 0 12 12 12 12 0 0 0 12-12A12 12 0 0 0 12 0a12 12 0 0 0-.056 0zm4.962 7.224c.1-.002.321.023.465.14a.506.506 0 0 1 .171.325c.016.093.036.306.02.472-.18 1.898-.962 6.502-1.36 8.627-.168.9-.499 1.201-.82 1.23-.696.065-1.225-.46-1.9-.902-1.056-.693-1.653-1.124-2.678-1.8-1.185-.78-.417-1.21.258-1.91.177-.184 3.247-2.977 3.307-3.23.007-.032.014-.15-.056-.212s-.174-.041-.249-.024c-.106.024-1.793 1.14-5.061 3.345-.48.33-.913.49-1.302.48-.428-.008-1.252-.241-1.865-.44-.752-.245-1.349-.374-1.297-.789.027-.216.325-.437.893-.663 3.498-1.524 5.83-2.529 6.998-3.014 3.332-1.386 4.025-1.627 4.476-1.635z"/></symbol>
<symbol id="logo-onemap" viewBox="0 0 24 24"><polygon points="2,5 9,3 15,5 22,3 22,19 15,21 9,19 2,21" fill="none" stroke="#DC2626" stroke-width="1.6" stroke-linejoin="round"/><line x1="9" y1="3" x2="9" y2="19" stroke="#DC2626" stroke-width="1.6"/><line x1="15" y1="5" x2="15" y2="21" stroke="#DC2626" stroke-width="1.6"/><circle cx="11.5" cy="11" r="1.4" fill="#DC2626"/></symbol>
<symbol id="logo-nea" viewBox="0 0 24 24"><circle cx="7" cy="9" r="3" fill="#EAB308"/><path d="M17 18a4 4 0 0 0 0-8 6 6 0 0 0-11.5 1A4.5 4.5 0 0 0 6 19h11z" fill="none" stroke="#2563EB" stroke-width="1.6" stroke-linejoin="round"/></symbol>
<symbol id="logo-lta" viewBox="0 0 24 24"><path d="M5 17h14M3 7h18l-2 10H5z" fill="none" stroke="#16A34A" stroke-width="1.6" stroke-linejoin="round"/><circle cx="8" cy="21" r="1.4" fill="#16A34A"/><circle cx="16" cy="21" r="1.4" fill="#16A34A"/></symbol>
<symbol id="ic-brain" viewBox="0 0 24 24"><path fill="none" stroke="#7C3AED" stroke-width="1.7" stroke-linejoin="round" d="M9 5a3 3 0 0 0-3 3 3 3 0 0 0-2 5 3 3 0 0 0 2 5 3 3 0 0 0 3 3h6a3 3 0 0 0 3-3 3 3 0 0 0 2-5 3 3 0 0 0-2-5 3 3 0 0 0-3-3z"/><path d="M12 8v9" stroke="#7C3AED" stroke-width="1.4"/></symbol>
<symbol id="ic-tools" viewBox="0 0 24 24"><path fill="none" stroke="#0D9488" stroke-width="1.7" stroke-linecap="round" stroke-linejoin="round" d="M14 7l3-3 3 3-3 3zM14 7l-9 9 3 3 9-9M5 16l-3 5 5-3"/></symbol>
<symbol id="ic-pin" viewBox="0 0 24 24"><path fill="none" stroke="#0284C7" stroke-width="1.7" stroke-linecap="round" stroke-linejoin="round" d="M12 22s-7-7-7-13a7 7 0 1 1 14 0c0 6-7 13-7 13z"/><circle cx="12" cy="9" r="2.4" fill="none" stroke="#0284C7" stroke-width="1.7"/></symbol>
<symbol id="ic-compass" viewBox="0 0 24 24"><circle cx="12" cy="12" r="9" fill="none" stroke="#0284C7" stroke-width="1.7"/><polygon points="14,10 10,14 11,11" fill="#0284C7"/></symbol>
<symbol id="ic-camera" viewBox="0 0 24 24"><rect x="3" y="6" width="18" height="14" rx="2" fill="none" stroke="#0284C7" stroke-width="1.7"/><circle cx="12" cy="13" r="3.5" fill="none" stroke="#0284C7" stroke-width="1.7"/></symbol>
<symbol id="ic-clock" viewBox="0 0 24 24"><circle cx="12" cy="12" r="9" fill="none" stroke="#D97706" stroke-width="1.7"/><path d="M12 7v5l3 2" fill="none" stroke="#D97706" stroke-width="1.7" stroke-linecap="round"/></symbol>
<symbol id="ic-inbox" viewBox="0 0 24 24"><path d="M22 12h-6l-2 3h-4l-2-3H2M5.5 5h13l3 7v6a2 2 0 0 1-2 2H4.5a2 2 0 0 1-2-2v-6z" fill="none" stroke="#B45309" stroke-width="1.7" stroke-linejoin="round"/></symbol>
<symbol id="ic-warn" viewBox="0 0 24 24"><path d="M12 3l10 18H2z" fill="none" stroke="#B91C1C" stroke-width="1.7" stroke-linejoin="round"/><path d="M12 9v5" stroke="#B91C1C" stroke-width="1.7"/><circle cx="12" cy="17" r="1" fill="#B91C1C"/></symbol>
<symbol id="ic-truck" viewBox="0 0 24 24"><path d="M3 8h13l4 5v4h-2M3 8v9h2M9 17h6" fill="none" stroke="#15803D" stroke-width="1.7" stroke-linejoin="round"/><circle cx="7" cy="17" r="2" fill="none" stroke="#15803D" stroke-width="1.7"/><circle cx="17" cy="17" r="2" fill="none" stroke="#15803D" stroke-width="1.7"/></symbol>
<symbol id="ic-users" viewBox="0 0 24 24"><circle cx="9" cy="8" r="3.5" fill="none" stroke="#6D28D9" stroke-width="1.7"/><circle cx="17" cy="9" r="2.5" fill="none" stroke="#6D28D9" stroke-width="1.7"/><path d="M2 20c0-3 3-5 7-5s7 2 7 5M14 20c0-2 2-3.5 5-3.5s5 1.5 5 3.5" fill="none" stroke="#6D28D9" stroke-width="1.7" stroke-linejoin="round"/></symbol>
<symbol id="ic-radar" viewBox="0 0 24 24"><circle cx="12" cy="12" r="4" fill="none" stroke="#0F766E" stroke-width="1.7"/><path d="M12 2v3M12 19v3M2 12h3M19 12h3" fill="none" stroke="#0F766E" stroke-width="1.7" stroke-linecap="round"/></symbol>
<symbol id="ic-screen" viewBox="0 0 24 24"><rect x="3" y="4" width="18" height="13" rx="2" fill="none" stroke="#BE185D" stroke-width="1.7"/><path d="M8 21h8M12 17v4" fill="none" stroke="#BE185D" stroke-width="1.7" stroke-linecap="round"/></symbol>
</defs>

<!-- Light canvas -->
<rect width="1600" height="1660" rx="18" fill="#ffffff"/>

<!-- ═══ CLUSTERS (opaque pastel fills) ═══ -->
<g class="cluster">
<rect x="40" y="60" width="1520" height="240" rx="14" fill="#f8fafc" stroke="#94a3b8" stroke-width="2" stroke-dasharray="8 7"/>
<rect x="56" y="68" width="120" height="20" rx="5" fill="#ffffff" stroke="#94a3b8"/>
<text x="116" y="83" fill="#0f172a" font-size="10" font-weight="800" letter-spacing="1.1" text-anchor="middle">01 · CLIENTS</text>
<text x="1545" y="83" fill="#64748b" font-size="10" font-weight="600" text-anchor="end">SAME REACT SPA · ROLE-SCOPED</text>
</g>
<g class="cluster">
<rect x="40" y="320" width="1520" height="220" rx="14" fill="#f0f9ff" stroke="#0284C7" stroke-width="2" stroke-dasharray="8 7"/>
<rect x="56" y="328" width="180" height="20" rx="5" fill="#ffffff" stroke="#0284C7"/>
<text x="146" y="343" fill="#0f172a" font-size="10" font-weight="800" letter-spacing="1.1" text-anchor="middle">02 · EDGE · VERCEL</text>
<text x="1545" y="343" fill="#64748b" font-size="10" font-weight="600" text-anchor="end">STATELESS · NO PII AT REST</text>
</g>
<g class="cluster">
<rect x="40" y="580" width="1520" height="580" rx="14" fill="#fef2f2" stroke="#DC2626" stroke-width="2" stroke-dasharray="8 7"/>
<rect x="56" y="588" width="200" height="20" rx="5" fill="#ffffff" stroke="#DC2626"/>
<text x="156" y="603" fill="#0f172a" font-size="10" font-weight="800" letter-spacing="1.1" text-anchor="middle">03 · CORE · CSOT</text>
<text x="1545" y="603" fill="#64748b" font-size="10" font-weight="600" text-anchor="end">CANONICAL STATE OF TRUTH</text>
<rect x="80" y="830" width="1440" height="300" rx="12" fill="#ffffff" stroke="#94a3b8" stroke-width="1.5" stroke-dasharray="6 5"/>
<rect x="96" y="838" width="200" height="18" rx="4" fill="#ffffff" stroke="#94a3b8"/>
<text x="196" y="852" fill="#475569" font-size="9" font-weight="800" letter-spacing="1.1" text-anchor="middle">SIX CSOT CLUSTERS</text>
</g>
<g class="cluster">
<rect x="40" y="1180" width="1520" height="200" rx="14" fill="#fffbeb" stroke="#D97706" stroke-width="2" stroke-dasharray="8 7"/>
<rect x="56" y="1188" width="200" height="20" rx="5" fill="#ffffff" stroke="#D97706"/>
<text x="156" y="1203" fill="#0f172a" font-size="10" font-weight="800" letter-spacing="1.1" text-anchor="middle">04 · WORKERS · INGEST</text>
<text x="1545" y="1203" fill="#64748b" font-size="10" font-weight="600" text-anchor="end">PYTHON · BACKGROUND</text>
</g>
<g class="cluster">
<rect x="40" y="1400" width="1520" height="220" rx="14" fill="#faf5ff" stroke="#7C3AED" stroke-width="2" stroke-dasharray="8 7"/>
<rect x="56" y="1408" width="220" height="20" rx="5" fill="#ffffff" stroke="#7C3AED"/>
<text x="166" y="1423" fill="#0f172a" font-size="10" font-weight="800" letter-spacing="1.1" text-anchor="middle">05 · EXTERNAL · 3RD-PARTY</text>
<text x="1545" y="1423" fill="#64748b" font-size="10" font-weight="600" text-anchor="end">READ-ONLY · ATTRIBUTED</text>
</g>

<!-- ═══ CONNECTORS ═══ -->
<g class="edges">
<path d="M 280 260 L 280 360" fill="none" stroke="#0284C7" stroke-width="2" marker-end="url(#ar-cy)"/>
<rect x="200" y="295" width="160" height="20" rx="4" fill="#ffffff" stroke="#0284C7"/>
<text x="280" y="310" fill="#0f172a" font-size="10" font-weight="600" text-anchor="middle">HTTPS · role token</text>

<path d="M 800 260 L 800 360" fill="none" stroke="#C026D3" stroke-width="2" marker-end="url(#ar-mg)" marker-start="url(#ar-mg)"/>
<rect x="710" y="295" width="180" height="20" rx="4" fill="#ffffff" stroke="#C026D3"/>
<text x="800" y="310" fill="#0f172a" font-size="10" font-weight="600" text-anchor="middle">WSS MQTT · QoS-1</text>

<path d="M 1320 260 L 1320 360" fill="none" stroke="#0284C7" stroke-width="2" marker-end="url(#ar-cy)"/>
<rect x="1240" y="295" width="160" height="20" rx="4" fill="#ffffff" stroke="#0284C7"/>
<text x="1320" y="310" fill="#0f172a" font-size="10" font-weight="600" text-anchor="middle">HTTPS · session</text>

<path d="M 800 520 L 800 620" fill="none" stroke="#C026D3" stroke-width="2" marker-end="url(#ar-mg)"/>
<rect x="685" y="555" width="230" height="20" rx="4" fill="#ffffff" stroke="#C026D3"/>
<text x="800" y="570" fill="#0f172a" font-size="10" font-weight="600" text-anchor="middle">MQTT publish · canonical writes</text>

<path d="M 720 715 L 880 715" fill="none" stroke="#64748B" stroke-width="2" marker-end="url(#ar-gy)" marker-start="url(#ar-gy)"/>
<rect x="755" y="695" width="90" height="20" rx="4" fill="#ffffff" stroke="#64748B"/>
<text x="800" y="710" fill="#0f172a" font-size="10" font-weight="600" text-anchor="middle">bridge · pub/sub</text>

<path d="M 800 800 L 800 855" fill="none" stroke="#64748B" stroke-width="2" marker-end="url(#ar-gy)"/>

<path d="M 800 1220 L 800 1130" fill="none" stroke="#D97706" stroke-width="2" stroke-dasharray="7 5" marker-end="url(#ar-am)"/>
<rect x="690" y="1145" width="220" height="20" rx="4" fill="#ffffff" stroke="#D97706"/>
<text x="800" y="1160" fill="#0f172a" font-size="10" font-weight="600" text-anchor="middle">Python · canonical event writes</text>

<path d="M 800 1440 L 800 1360" fill="none" stroke="#7C3AED" stroke-width="2" stroke-dasharray="7 5" marker-end="url(#ar-pu)"/>
<rect x="710" y="1370" width="180" height="20" rx="4" fill="#ffffff" stroke="#7C3AED"/>
<text x="800" y="1385" fill="#0f172a" font-size="10" font-weight="600" text-anchor="middle">read-only · poll/scrape</text>
</g>

<!-- ═══ CLIENT NODES (solid blue, white text) ═══ -->
<g class="node">
<rect x="120" y="140" width="320" height="120" rx="8" fill="#1D4ED8" stroke="#1e3a8a" stroke-width="1.5"/>
<use href="#logo-react-w" x="148" y="170" width="34" height="34"/>
<text x="280" y="185" fill="#ffffff" font-size="15" font-weight="700" text-anchor="middle">React Citizen PWA</text>
<line x1="148" y1="208" x2="412" y2="208" stroke="#ffffff" stroke-opacity="0.45"/>
<text fill="#ffffff" font-size="11" font-weight="500" text-anchor="middle">
<tspan x="280" y="226">Map · SOS · report compose</tspan>
<tspan x="280" y="242">grounded AI alerts · offline queue</tspan>
</text>
</g>
<g class="node">
<rect x="640" y="140" width="320" height="120" rx="8" fill="#1D4ED8" stroke="#1e3a8a" stroke-width="1.5"/>
<use href="#logo-react-w" x="668" y="170" width="34" height="34"/>
<text x="800" y="185" fill="#ffffff" font-size="15" font-weight="700" text-anchor="middle">React Responder Cockpit</text>
<line x1="668" y1="208" x2="932" y2="208" stroke="#ffffff" stroke-opacity="0.45"/>
<text fill="#ffffff" font-size="11" font-weight="500" text-anchor="middle">
<tspan x="800" y="226">Joinable missions · case rooms</tspan>
<tspan x="800" y="242">13 slash commands · captain ctrl</tspan>
</text>
</g>
<g class="node">
<rect x="1160" y="140" width="320" height="120" rx="8" fill="#1D4ED8" stroke="#1e3a8a" stroke-width="1.5"/>
<use href="#logo-react-w" x="1188" y="170" width="34" height="34"/>
<text x="1320" y="185" fill="#ffffff" font-size="15" font-weight="700" text-anchor="middle">React Ops Console</text>
<line x1="1188" y1="208" x2="1452" y2="208" stroke="#ffffff" stroke-opacity="0.45"/>
<text fill="#ffffff" font-size="11" font-weight="500" text-anchor="middle">
<tspan x="1320" y="226">Verify · case requests · dispatch</tspan>
<tspan x="1320" y="242">zone draw · broadcast composer</tspan>
</text>
</g>

<!-- ═══ EDGE NODES (white opaque, cyan border) ═══ -->
<g class="node">
<rect x="80" y="370" width="240" height="150" rx="8" fill="#ffffff" stroke="#0284C7" stroke-width="1.5"/>
<use href="#ic-brain" x="184" y="384" width="32" height="32"/>
<text x="200" y="442" fill="#0f172a" font-size="13" font-weight="700" text-anchor="middle">AI Routing</text>
<text x="200" y="458" fill="#64748b" font-size="10" font-family="ui-monospace,monospace" text-anchor="middle">api/host/ask</text>
<line x1="100" y1="472" x2="300" y2="472" stroke="#e2e8f0"/>
<text fill="#475569" font-size="9.5" font-weight="500" text-anchor="middle">
<tspan x="200" y="488">Role-aware Host AI dispatcher</tspan>
<tspan x="200" y="502">streaming · OpenRouter</tspan>
</text>
</g>
<g class="node">
<rect x="380" y="370" width="240" height="150" rx="8" fill="#ffffff" stroke="#0284C7" stroke-width="1.5"/>
<use href="#ic-tools" x="484" y="384" width="32" height="32"/>
<text x="500" y="442" fill="#0f172a" font-size="13" font-weight="700" text-anchor="middle">Tool Gateway</text>
<text x="500" y="458" fill="#64748b" font-size="10" font-family="ui-monospace,monospace" text-anchor="middle">api/host/tools</text>
<line x1="400" y1="472" x2="600" y2="472" stroke="#e2e8f0"/>
<text fill="#475569" font-size="9.5" font-weight="500" text-anchor="middle">
<tspan x="500" y="488">Allowlisted tool calls</tspan>
<tspan x="500" y="502">attribution + freshness stamp</tspan>
</text>
</g>
<g class="node">
<rect x="680" y="370" width="240" height="150" rx="8" fill="#ffffff" stroke="#0284C7" stroke-width="1.5"/>
<use href="#ic-pin" x="784" y="384" width="32" height="32"/>
<text x="800" y="442" fill="#0f172a" font-size="13" font-weight="700" text-anchor="middle">Live Map Service</text>
<text x="800" y="458" fill="#64748b" font-size="10" font-family="ui-monospace,monospace" text-anchor="middle">api/live/map-layers</text>
<line x1="700" y1="472" x2="900" y2="472" stroke="#e2e8f0"/>
<text fill="#475569" font-size="9.5" font-weight="500" text-anchor="middle">
<tspan x="800" y="488">OneMap basemap · overlays</tspan>
<tspan x="800" y="502">5m edge cache</tspan>
</text>
</g>
<g class="node">
<rect x="980" y="370" width="240" height="150" rx="8" fill="#ffffff" stroke="#0284C7" stroke-width="1.5"/>
<use href="#ic-compass" x="1084" y="384" width="32" height="32"/>
<text x="1100" y="442" fill="#0f172a" font-size="13" font-weight="700" text-anchor="middle">Reverse Geocoder</text>
<text x="1100" y="458" fill="#64748b" font-size="10" font-family="ui-monospace,monospace" text-anchor="middle">api/live/revgeocode</text>
<line x1="1000" y1="472" x2="1200" y2="472" stroke="#e2e8f0"/>
<text fill="#475569" font-size="9.5" font-weight="500" text-anchor="middle">
<tspan x="1100" y="488">LngLat → place name</tspan>
<tspan x="1100" y="502">debounced 600ms · 110m grid</tspan>
</text>
</g>
<g class="node">
<rect x="1280" y="370" width="240" height="150" rx="8" fill="#ffffff" stroke="#0284C7" stroke-width="1.5"/>
<use href="#ic-camera" x="1384" y="384" width="32" height="32"/>
<text x="1400" y="442" fill="#0f172a" font-size="13" font-weight="700" text-anchor="middle">Source Snapshot</text>
<text x="1400" y="458" fill="#64748b" font-size="10" font-family="ui-monospace,monospace" text-anchor="middle">api/live/snapshot</text>
<line x1="1300" y1="472" x2="1500" y2="472" stroke="#e2e8f0"/>
<text fill="#475569" font-size="9.5" font-weight="500" text-anchor="middle">
<tspan x="1400" y="488">Cached weather · traffic · load</tspan>
<tspan x="1400" y="502">15s–24h tiers · honest staleness</tspan>
</text>
</g>

<!-- ═══ CORE BUS: Mosquitto + Redis (white opaque) ═══ -->
<g class="node">
<rect x="260" y="630" width="460" height="170" rx="8" fill="#ffffff" stroke="#3C5280" stroke-width="2"/>
<use href="#logo-mosq" x="296" y="652" width="64" height="64"/>
<text x="510" y="676" fill="#0f172a" font-size="17" font-weight="700">Mosquitto MQTT 5</text>
<text x="510" y="694" fill="#64748b" font-size="11" font-family="ui-monospace,monospace">mqtt://broker:1883 · ws:9001</text>
<line x1="510" y1="710" x2="700" y2="710" stroke="#e2e8f0"/>
<text fill="#475569" font-size="11" font-weight="500">
<tspan x="510" y="728">QoS-1 delivery · retained · LWT</tspan>
<tspan x="510" y="744">topic-scoped ACL per role</tspan>
<tspan x="510" y="760">survives bad networks</tspan>
</text>
</g>
<g class="node">
<rect x="880" y="630" width="460" height="170" rx="8" fill="#ffffff" stroke="#DC382D" stroke-width="2"/>
<use href="#logo-redis" x="916" y="652" width="64" height="64"/>
<text x="1130" y="676" fill="#0f172a" font-size="17" font-weight="700">Redis Bridge</text>
<text x="1130" y="694" fill="#64748b" font-size="11" font-family="ui-monospace,monospace">redis://core:6379</text>
<line x1="1130" y1="710" x2="1320" y2="710" stroke="#e2e8f0"/>
<text fill="#475569" font-size="11" font-weight="500">
<tspan x="1130" y="728">state mirror · pub/sub fan-out</tspan>
<tspan x="1130" y="744">GEOADD geohash · HSET scores</tspan>
<tspan x="1130" y="760">SET audit hashes</tspan>
</text>
</g>

<!-- ═══ SIX CSOT CLUSTER CHIPS (opaque pastels) ═══ -->
<g class="node">
<rect x="110" y="880" width="200" height="220" rx="8" fill="#fef3c7" stroke="#D97706" stroke-width="1.5"/>
<use href="#ic-inbox" x="194" y="900" width="32" height="32"/>
<text x="210" y="958" fill="#0f172a" font-size="14" font-weight="700" text-anchor="middle">Intake</text>
<text x="210" y="976" fill="#92400e" font-size="9.5" font-family="ui-monospace,monospace" text-anchor="middle">low-trust signals</text>
<line x1="130" y1="990" x2="290" y2="990" stroke="#fcd34d"/>
<text fill="#78350f" font-size="11" font-weight="500" text-anchor="middle">
<tspan x="210" y="1010">reports</tspan>
<tspan x="210" y="1028">sos sessions</tspan>
<tspan x="210" y="1046">awaiting verify</tspan>
</text>
</g>
<g class="node">
<rect x="346" y="880" width="200" height="220" rx="8" fill="#fee2e2" stroke="#DC2626" stroke-width="1.5"/>
<use href="#ic-warn" x="430" y="900" width="32" height="32"/>
<text x="446" y="958" fill="#0f172a" font-size="14" font-weight="700" text-anchor="middle">Incidents</text>
<text x="446" y="976" fill="#991b1b" font-size="9.5" font-family="ui-monospace,monospace" text-anchor="middle">verified events</text>
<line x1="366" y1="990" x2="526" y2="990" stroke="#fca5a5"/>
<text fill="#7f1d1d" font-size="11" font-weight="500" text-anchor="middle">
<tspan x="446" y="1010">events</tspan>
<tspan x="446" y="1028">zones</tspan>
<tspan x="446" y="1046">declared by ops</tspan>
</text>
</g>
<g class="node">
<rect x="582" y="880" width="200" height="220" rx="8" fill="#dcfce7" stroke="#16A34A" stroke-width="1.5"/>
<use href="#ic-truck" x="666" y="900" width="32" height="32"/>
<text x="682" y="958" fill="#0f172a" font-size="14" font-weight="700" text-anchor="middle">Operations</text>
<text x="682" y="976" fill="#166534" font-size="9.5" font-family="ui-monospace,monospace" text-anchor="middle">live response</text>
<line x1="602" y1="990" x2="762" y2="990" stroke="#86efac"/>
<text fill="#14532d" font-size="11" font-weight="500" text-anchor="middle">
<tspan x="682" y="1010">cases · members</tspan>
<tspan x="682" y="1028">chat · captain</tspan>
<tspan x="682" y="1046">case room</tspan>
</text>
</g>
<g class="node">
<rect x="818" y="880" width="200" height="220" rx="8" fill="#ede9fe" stroke="#7C3AED" stroke-width="1.5"/>
<use href="#ic-users" x="902" y="900" width="32" height="32"/>
<text x="918" y="958" fill="#0f172a" font-size="14" font-weight="700" text-anchor="middle">Network</text>
<text x="918" y="976" fill="#5b21b6" font-size="9.5" font-family="ui-monospace,monospace" text-anchor="middle">identity · groups</text>
<line x1="838" y1="990" x2="998" y2="990" stroke="#c4b5fd"/>
<text fill="#4c1d95" font-size="11" font-weight="500" text-anchor="middle">
<tspan x="918" y="1010">users · responders</tspan>
<tspan x="918" y="1028">groups · roster</tspan>
<tspan x="918" y="1046">org affiliation</tspan>
</text>
</g>
<g class="node">
<rect x="1054" y="880" width="200" height="220" rx="8" fill="#ccfbf1" stroke="#0F766E" stroke-width="1.5"/>
<use href="#ic-radar" x="1138" y="900" width="32" height="32"/>
<text x="1154" y="958" fill="#0f172a" font-size="14" font-weight="700" text-anchor="middle">Intel</text>
<text x="1154" y="976" fill="#115e59" font-size="9.5" font-family="ui-monospace,monospace" text-anchor="middle">audit · sources</text>
<line x1="1074" y1="990" x2="1234" y2="990" stroke="#5eead4"/>
<text fill="#134e4a" font-size="11" font-weight="500" text-anchor="middle">
<tspan x="1154" y="1010">action logs</tspan>
<tspan x="1154" y="1028">source health</tspan>
<tspan x="1154" y="1046">notifications</tspan>
</text>
</g>
<g class="node">
<rect x="1290" y="880" width="200" height="220" rx="8" fill="#fce7f3" stroke="#BE185D" stroke-width="1.5"/>
<use href="#ic-screen" x="1374" y="900" width="32" height="32"/>
<text x="1390" y="958" fill="#0f172a" font-size="14" font-weight="700" text-anchor="middle">Presentation</text>
<text x="1390" y="976" fill="#9d174d" font-size="9.5" font-family="ui-monospace,monospace" text-anchor="middle">ephemeral UI</text>
<line x1="1310" y1="990" x2="1470" y2="990" stroke="#f9a8d4"/>
<text fill="#831843" font-size="11" font-weight="500" text-anchor="middle">
<tspan x="1390" y="1010">shell state</tspan>
<tspan x="1390" y="1028">drawer · selection</tspan>
<tspan x="1390" y="1046">UI-only</tspan>
</text>
</g>

<!-- ═══ WORKERS (white opaque, amber/teal/cyan borders) ═══ -->
<g class="node">
<rect x="80" y="1220" width="400" height="140" rx="8" fill="#ffffff" stroke="#009688" stroke-width="1.5"/>
<use href="#logo-fastapi" x="106" y="1244" width="48" height="48"/>
<text x="290" y="1262" fill="#0f172a" font-size="15" font-weight="700">FastAPI Core</text>
<text x="290" y="1280" fill="#64748b" font-size="11" font-family="ui-monospace,monospace">apps/core</text>
<line x1="170" y1="1294" x2="450" y2="1294" stroke="#e2e8f0"/>
<text fill="#475569" font-size="11" font-weight="500">
<tspan x="170" y="1314">Async REST + SSE · normalises evidence</tspan>
<tspan x="170" y="1332">runs dedupe · emits canonical events</tspan>
</text>
</g>
<g class="node">
<rect x="600" y="1220" width="400" height="140" rx="8" fill="#ffffff" stroke="#26A5E4" stroke-width="1.5"/>
<use href="#logo-tg" x="626" y="1244" width="48" height="48"/>
<text x="810" y="1262" fill="#0f172a" font-size="15" font-weight="700">Telethon Scraper</text>
<text x="810" y="1280" fill="#64748b" font-size="11" font-family="ui-monospace,monospace">workers/telethon</text>
<line x1="690" y1="1294" x2="970" y2="1294" stroke="#e2e8f0"/>
<text fill="#475569" font-size="11" font-weight="500">
<tspan x="690" y="1314">Listens to gov.sg / SCDF channels</tspan>
<tspan x="690" y="1332">Normalises advisories → intake</tspan>
</text>
</g>
<g class="node">
<rect x="1120" y="1220" width="400" height="140" rx="8" fill="#ffffff" stroke="#D97706" stroke-width="1.5"/>
<use href="#ic-clock" x="1146" y="1244" width="48" height="48"/>
<text x="1330" y="1262" fill="#0f172a" font-size="15" font-weight="700">HTTP Pollers</text>
<text x="1330" y="1280" fill="#64748b" font-size="11" font-family="ui-monospace,monospace">workers/pollers</text>
<line x1="1210" y1="1294" x2="1490" y2="1294" stroke="#e2e8f0"/>
<text fill="#475569" font-size="11" font-weight="500">
<tspan x="1210" y="1314">15s rainfall · 60s traffic · 5m news</tspan>
<tspan x="1210" y="1332">Tier-aware · freshness stamp on tick</tspan>
</text>
</g>

<!-- ═══ EXTERNAL (white opaque, purple borders) ═══ -->
<g class="node">
<rect x="80" y="1440" width="280" height="150" rx="8" fill="#ffffff" stroke="#7C3AED" stroke-width="1.5"/>
<use href="#logo-openai" x="100" y="1466" width="40" height="40"/>
<text x="240" y="1486" fill="#0f172a" font-size="14" font-weight="700">OpenRouter</text>
<text x="240" y="1502" fill="#64748b" font-size="10" font-family="ui-monospace,monospace">openrouter.ai</text>
<line x1="160" y1="1516" x2="340" y2="1516" stroke="#e2e8f0"/>
<text fill="#475569" font-size="10" font-weight="500">
<tspan x="160" y="1534">Routes to GPT-5.5 / Claude / Gemini</tspan>
<tspan x="160" y="1550">Host AI generation</tspan>
</text>
</g>
<g class="node">
<rect x="392" y="1440" width="240" height="150" rx="8" fill="#ffffff" stroke="#7C3AED" stroke-width="1.5"/>
<use href="#logo-onemap" x="412" y="1466" width="40" height="40"/>
<text x="532" y="1486" fill="#0f172a" font-size="14" font-weight="700">OneMap SG</text>
<text x="532" y="1502" fill="#64748b" font-size="10" font-family="ui-monospace,monospace">onemap.gov.sg</text>
<line x1="472" y1="1516" x2="612" y2="1516" stroke="#e2e8f0"/>
<text fill="#475569" font-size="10" font-weight="500">
<tspan x="472" y="1534">Tiles · planning area lookups</tspan>
<tspan x="472" y="1550">government-canonical</tspan>
</text>
</g>
<g class="node">
<rect x="664" y="1440" width="240" height="150" rx="8" fill="#ffffff" stroke="#7C3AED" stroke-width="1.5"/>
<use href="#logo-nea" x="684" y="1466" width="40" height="40"/>
<text x="804" y="1486" fill="#0f172a" font-size="14" font-weight="700">NEA API</text>
<text x="804" y="1502" fill="#64748b" font-size="10" font-family="ui-monospace,monospace">data.gov.sg/realtime</text>
<line x1="744" y1="1516" x2="884" y2="1516" stroke="#e2e8f0"/>
<text fill="#475569" font-size="10" font-weight="500">
<tspan x="744" y="1534">PSI · rainfall · 2-hr forecast</tspan>
<tspan x="744" y="1550">lightning warnings</tspan>
</text>
</g>
<g class="node">
<rect x="936" y="1440" width="240" height="150" rx="8" fill="#ffffff" stroke="#7C3AED" stroke-width="1.5"/>
<use href="#logo-lta" x="956" y="1466" width="40" height="40"/>
<text x="1076" y="1486" fill="#0f172a" font-size="14" font-weight="700">LTA DataMall</text>
<text x="1076" y="1502" fill="#64748b" font-size="10" font-family="ui-monospace,monospace">datamall2.mytransport</text>
<line x1="1016" y1="1516" x2="1156" y2="1516" stroke="#e2e8f0"/>
<text fill="#475569" font-size="10" font-weight="500">
<tspan x="1016" y="1534">Traffic · roadworks · ERP</tspan>
<tspan x="1016" y="1550">live overlay source</tspan>
</text>
</g>
<g class="node">
<rect x="1208" y="1440" width="312" height="150" rx="8" fill="#ffffff" stroke="#7C3AED" stroke-width="1.5"/>
<use href="#logo-tg" x="1228" y="1466" width="40" height="40"/>
<text x="1364" y="1486" fill="#0f172a" font-size="14" font-weight="700">gov.sg Telegram</text>
<text x="1364" y="1502" fill="#64748b" font-size="10" font-family="ui-monospace,monospace">@govsg · @SCDF</text>
<line x1="1288" y1="1516" x2="1500" y2="1516" stroke="#e2e8f0"/>
<text fill="#475569" font-size="10" font-weight="500">
<tspan x="1288" y="1534">Authoritative advisories</tspan>
<tspan x="1288" y="1550">read-only · corroborated</tspan>
</text>
</g>

</svg>